<svg width="214" height="25" viewBox="0 0 214 25" fill="none" xmlns="http://www.w3.org/2000/svg">
<path d="M10.034 8.13312C11.402 7.65012 12.1 6.41612 12.1 4.42812C12.101 1.44612 10.216 0.000115434 6.35503 0.000115434H0.699031C0.630668 -0.00327079 0.562349 0.00761542 0.498424 0.0320809C0.434499 0.0565463 0.376369 0.094055 0.327735 0.142218C0.279101 0.190382 0.24103 0.248145 0.215944 0.311829C0.190858 0.375513 0.179309 0.443723 0.182031 0.512115V16.8671C0.182031 17.1691 0.395031 17.3801 0.699031 17.3801H8.20903C11.341 17.3801 13.317 15.4521 13.317 12.3801C13.287 10.1501 12.04 8.49412 10.034 8.13312ZM11.736 12.4101C11.736 14.7901 10.429 15.9941 7.84403 15.9941H1.67203V9.24712H8.66503C9.57803 9.24712 11.736 9.54811 11.736 12.4101ZM1.67203 7.86012V1.38612H6.32403C9.30403 1.38612 10.52 2.25912 10.52 4.42812C10.52 6.56612 9.66903 7.86112 8.27003 7.86112H1.67203V7.86012ZM24.08 2.92212C23.96 2.65112 23.837 2.34912 23.442 2.34912C23.047 2.34912 22.895 2.65112 22.773 2.89212L16.358 16.5661C16.358 16.5661 16.267 16.6861 16.267 16.8981C16.267 17.1981 16.54 17.4101 16.875 17.4101C17.392 17.4101 17.544 17.1991 17.726 16.8071L19.003 14.0671H27.973L29.341 16.9271C29.493 17.2591 29.736 17.4101 30.101 17.4101C30.527 17.4101 30.709 17.1081 30.709 16.8981C30.709 16.6871 30.649 16.5661 30.649 16.5661L24.08 2.92212ZM27.334 12.7411H19.642L23.472 4.57812L27.334 12.7411ZM59.411 21.7171C59.351 21.7171 59.29 21.7771 59.168 21.8971C58.712 22.2891 57.526 23.3731 55.307 23.3731C50.897 23.3731 47.887 19.8191 44.695 16.0241C43.54 14.6391 42.324 13.2231 41.016 11.9281C43.509 11.0241 44.908 9.30812 44.908 7.04812C44.908 4.09612 42.749 2.59012 38.462 2.59012H35.24C34.967 2.59012 34.784 2.77112 34.784 3.04212V16.9281C34.784 17.2281 34.997 17.3801 35.484 17.3801C35.97 17.3801 36.214 17.2291 36.214 16.9281V3.91612H38.4C41.41 3.91612 43.417 4.45812 43.417 7.13912C43.417 10.2711 40.103 11.3861 37.002 11.3861C36.698 11.3861 36.515 11.4761 36.515 11.9581C36.515 12.1981 36.607 12.6201 37.245 12.6201C38.065 12.6201 38.826 12.5601 39.555 12.4101C41.106 13.8551 42.505 15.5121 43.843 17.1391C47.127 21.0541 50.198 24.7591 55.183 24.7591C57.86 24.7591 60.018 22.7711 60.018 22.5301C60.018 22.0481 59.653 21.7171 59.41 21.7171H59.411Z" fill="#FEFEFE"/>
<path d="M62.2701 2.62C61.8441 2.62 61.6301 2.831 61.6301 3.042V14.91L51.9331 2.892C51.8111 2.711 51.5371 2.62 51.2331 2.62C50.7471 2.62 50.5341 2.831 50.5341 3.072V16.958C50.5341 17.138 50.6251 17.41 51.1721 17.41C51.6291 17.41 51.8111 17.169 51.8111 16.958V4.97L61.6931 17.018C61.8451 17.198 61.9971 17.41 62.3611 17.41C62.6961 17.41 62.9091 17.259 62.9091 17.018V3.042C62.9091 2.832 62.7261 2.62 62.2701 2.62ZM73.3371 9.187C71.1771 8.554 69.1411 7.952 69.1411 6.205C69.1411 4.91 70.3271 3.615 73.0021 3.615C74.7661 3.615 75.9821 4.307 75.9821 5.301C75.9821 5.783 75.8601 5.994 75.7391 6.145C75.6781 6.235 75.6171 6.325 75.6171 6.445C75.6171 6.536 75.6471 6.837 76.1341 6.837C76.5601 6.837 77.3801 6.205 77.3801 5.241C77.3801 3.614 75.4951 2.38 72.9721 2.38C69.8101 2.38 67.7121 4.006 67.7121 6.446C67.7121 8.916 70.2351 9.669 72.6981 10.361C74.8881 10.994 76.9851 11.596 76.9851 13.434C76.9851 15.181 75.2221 16.355 72.6071 16.355C70.0831 16.355 68.5631 15.542 68.5631 14.187C68.5631 13.825 68.7151 13.554 68.8371 13.343C68.9271 13.193 68.9891 13.043 68.9891 12.922C68.9891 12.681 68.7761 12.47 68.5021 12.47C68.1371 12.47 67.2251 13.042 67.2251 14.428C67.2251 16.446 69.2621 17.651 72.6681 17.651C76.6201 17.651 78.3841 15.451 78.3841 13.253C78.4141 10.663 75.8301 9.91 73.3371 9.187ZM92.3701 16.114H84.1601V3.072C84.1601 2.772 83.9481 2.651 83.4311 2.651C82.8531 2.651 82.7311 2.891 82.7311 3.072V16.988C82.7311 17.259 82.9141 17.44 83.1881 17.44H92.4001C92.4001 17.44 92.8251 17.32 92.8251 16.777C92.7951 16.235 92.3691 16.114 92.3691 16.114H92.3701ZM106.296 16.114H98.0861V12.23H104.532C104.532 12.23 104.958 12.11 104.958 11.567C104.958 11.025 104.532 10.905 104.532 10.905H98.0861V3.916H105.748C105.748 3.916 106.174 3.796 106.174 3.253C106.174 2.741 105.748 2.62 105.718 2.62H97.0831C96.8091 2.62 96.6271 2.801 96.6271 3.072V16.958C96.6271 17.228 96.8091 17.41 97.0831 17.41H106.296C106.296 17.41 106.721 17.29 106.721 16.747C106.721 16.235 106.296 16.114 106.296 16.114ZM121.255 2.62C120.89 2.62 120.677 2.801 120.677 2.831L115.782 10.091L111.039 3.102C110.826 2.772 110.552 2.62 110.157 2.62C109.731 2.62 109.518 2.861 109.518 3.102C109.518 3.313 109.64 3.524 109.64 3.524L114.991 11.476V16.988C114.991 17.198 115.174 17.44 115.691 17.44C116.36 17.44 116.421 17.139 116.421 16.988V11.446L121.802 3.373C121.802 3.343 121.924 3.223 121.924 3.103C121.984 2.801 121.62 2.62 121.254 2.62H121.255ZM146.257 0C145.544 0 145.514 0.56 145.514 0.56V9.487H134.486V0.56C134.486 0.56 134.486 0 133.743 0C133.03 0 133 0.56 133 0.56V16.44C133 16.44 133 17 133.743 17C134.456 17 134.486 16.44 134.486 16.44V10.872H145.514V16.44C145.514 16.44 145.514 17 146.257 17C146.97 17 147 16.44 147 16.44V0.56C147 0.56 147 0 146.257 0ZM159.53 3C157.625 3 155.72 3.77 154.305 5.105C153.571 5.81008 152.988 6.65725 152.592 7.59491C152.195 8.53256 151.994 9.54107 152 10.559C152 14.799 155.227 18 159.5 18C163.773 18 167 14.798 167 10.56C167 8.455 166.2 6.528 164.725 5.105C163.342 3.74 161.436 3 159.531 3H159.53ZM159.53 4.275C161.16 4.275 162.666 4.868 163.803 5.995C164.971 7.15 165.586 8.751 165.586 10.559C165.586 14.057 162.973 16.725 159.531 16.725C156.088 16.725 153.475 14.087 153.475 10.559C153.475 8.751 154.121 7.15 155.258 5.994C156.365 4.868 157.871 4.274 159.531 4.274L159.53 4.275ZM183.344 3C182.875 3 182.656 3.12 182.656 3.423V12.96C182.656 15.193 180.531 16.732 177.469 16.732C174.438 16.732 172.469 15.254 172.469 12.96V3.423C172.469 3.151 172.219 3 171.719 3C171.031 3 171 3.332 171 3.423V12.99C171 14.318 171.594 15.586 172.688 16.49C173.875 17.487 175.531 18 177.468 18C181.718 18 184 15.404 184 12.99V3.423C184 3.241 183.906 3 183.344 3ZM194.025 9.686C191.896 9.066 189.888 8.473 189.888 6.757C189.888 5.485 191.058 4.213 193.695 4.213C195.433 4.213 196.632 4.893 196.632 5.87C196.632 6.343 196.512 6.55 196.392 6.698C196.332 6.787 196.272 6.876 196.272 6.994C196.272 7.083 196.302 7.379 196.782 7.379C197.202 7.379 198.011 6.757 198.011 5.811C198.011 4.213 196.153 3 193.665 3C190.548 3 188.48 4.598 188.48 6.994C188.48 9.42 190.967 10.16 193.395 10.84C195.553 11.462 197.621 12.053 197.621 13.858C197.621 15.574 195.883 16.728 193.305 16.728C190.817 16.728 189.319 15.929 189.319 14.598C189.319 14.243 189.469 13.976 189.589 13.769C189.679 13.621 189.739 13.473 189.739 13.355C189.739 13.118 189.529 12.911 189.259 12.911C188.899 12.911 188 13.473 188 14.834C188 16.817 190.008 18 193.365 18C197.262 18 199 15.84 199 13.68C199 11.136 196.452 10.396 194.025 9.686ZM213.578 16.686H205.446V12.746H211.831C211.831 12.746 212.253 12.623 212.253 12.073C212.253 11.523 211.831 11.401 211.831 11.401H205.446V4.314H213.036C213.036 4.314 213.458 4.191 213.458 3.642C213.458 3.122 213.036 3 213.006 3H204.452C204.181 3 204 3.183 204 3.458V17.542C204 17.817 204.18 18 204.452 18H213.578C213.578 18 214 17.878 214 17.328C214 16.808 213.578 16.686 213.578 16.686Z" fill="#FEFEFE"/>
</svg>
