<svg width="32" height="32" viewBox="0 0 32 32" fill="none" xmlns="http://www.w3.org/2000/svg">
<path d="M25.2156 15.4911C24.6502 7.01054 17.0742 0.90453 16.735 0.678382C16.6219 0.678382 16.3958 0.565308 16.2827 0.565308C16.1697 0.565308 15.9435 0.678382 15.8304 0.678382C15.4912 0.90453 7.91523 7.12361 7.34986 15.4911C6.78449 24.0847 13.3428 26.3462 13.4559 26.3462C13.5689 26.3462 13.5689 26.3462 13.682 26.3462C13.9082 26.3462 14.0212 26.2332 14.1343 26.1201C14.2474 26.007 14.2474 25.8939 14.2474 25.6678C14.2474 25.4416 14.0212 25.2155 13.7951 25.1024C13.5689 24.9893 8.14138 23.1801 8.59368 15.4911C9.04597 8.70665 14.6997 3.27909 16.1697 1.9222C17.6396 3.27909 23.2933 8.70665 23.7456 15.4911C24.311 23.1801 18.7704 24.9893 18.5442 25.1024C18.3181 25.2155 18.205 25.3286 18.205 25.4416C18.0919 25.5547 18.0919 25.7809 18.205 25.8939C18.3181 26.1201 18.5442 26.2332 18.7704 26.2332C18.8834 26.2332 18.8834 26.2332 18.9965 26.2332C19.1096 26.3462 25.781 24.0847 25.2156 15.4911Z" fill="white"/>
<path d="M20.2404 19.6748C20.2404 19.5617 20.0142 19.3356 19.9011 19.3356C19.7881 19.3356 19.675 19.2225 19.5619 19.2225C19.3358 19.2225 19.2227 19.3356 18.9966 19.4486L16.9612 22.2755V19.3356L20.1273 15.0388C20.2404 14.9257 20.2404 14.6995 20.2404 14.5865C20.2404 14.4734 20.0142 14.2472 19.9011 14.2472C19.7881 14.2472 19.675 14.1342 19.5619 14.1342C19.3358 14.1342 19.2227 14.2472 18.9966 14.3603L16.9612 17.0741V14.1342L18.8835 11.5335C18.9966 11.4204 18.9966 11.1942 18.9966 11.0812C18.9966 10.9681 18.7704 10.7419 18.6573 10.7419C18.5443 10.7419 18.4312 10.6289 18.3181 10.6289C18.092 10.6289 17.9789 10.7419 17.7527 10.855L16.9612 11.9857V8.48045C16.9612 8.36737 16.9612 8.14122 16.8481 8.02815C16.7351 7.91508 16.5089 7.802 16.3958 7.802H16.2828C15.9435 7.802 15.6043 8.02815 15.6043 8.36737V8.48045V11.9857L14.8128 10.855C14.6997 10.6289 14.4736 10.5158 14.2474 10.5158C14.1344 10.5158 14.0213 10.5158 13.9082 10.6289C13.6821 10.7419 13.569 10.855 13.569 10.9681C13.569 11.0812 13.569 11.3073 13.569 11.4204C13.569 11.4204 13.569 11.5335 13.6821 11.5335L15.6043 14.0211V16.961L13.4559 14.1342C13.3428 14.0211 13.1167 13.908 12.8905 13.908C12.7775 13.908 12.5513 13.908 12.4382 14.0211C12.2121 14.2472 12.099 14.5865 12.3252 14.8126L15.6043 19.1094V22.0494L13.4559 19.2225C13.3428 19.1094 13.1167 18.9963 12.8905 18.9963C12.7775 18.9963 12.5513 18.9963 12.4382 19.1094C12.2121 19.3356 12.099 19.6748 12.3252 19.9009L15.6043 24.1978V29.5122C15.6043 29.6253 15.6043 29.8515 15.7174 29.9645C15.8305 30.0776 16.0566 30.1907 16.1697 30.1907H16.2828C16.622 30.1907 16.9612 29.9645 16.9612 29.6253V29.5122V24.3108L20.2404 20.014C20.2404 20.014 20.2404 19.9009 20.2404 19.6748Z" fill="white"/>
</svg>
