<svg width="28" height="28" viewBox="0 0 28 28" fill="none" xmlns="http://www.w3.org/2000/svg">
<path d="M27.1834 18.9H25.7834C25.3167 13.5333 20.65 9.21663 14.8167 8.86663V6.5333H16.1C16.5667 6.5333 16.9167 6.1833 16.9167 5.8333C16.9167 5.4833 16.5667 5.1333 16.1 5.1333H12.1334C11.6667 5.1333 11.4334 5.4833 11.4334 5.8333C11.4334 6.1833 11.7834 6.5333 12.1334 6.5333H13.3V8.86663C7.4667 9.21663 2.80003 13.5333 2.45003 18.9H0.816699C0.350032 18.9 0.116699 19.25 0.116699 19.7166C0.116699 20.1833 0.466699 20.5333 0.816699 20.5333H3.03337H3.50003H24.7334H25.0834H27.1834C27.65 20.5333 28 20.1833 28 19.7166C28 19.25 27.5334 18.9 27.1834 18.9ZM14.1167 10.3833C19.4834 10.3833 23.9167 14.1166 24.2667 18.9H3.85003C4.3167 14.1166 8.75003 10.3833 14.1167 10.3833Z" fill="white"/>
</svg>
