<svg width="26" height="26" viewBox="0 0 26 26" fill="none" xmlns="http://www.w3.org/2000/svg">
<g clip-path="url(#clip0_7_5167)">
<path d="M13 0.649902C6.17502 0.649902 0.650024 6.1749 0.650024 12.9999C0.650024 19.8249 6.17502 25.3499 13 25.3499C19.825 25.3499 25.35 19.8249 25.35 12.9999C25.35 6.1749 19.825 0.649902 13 0.649902ZM13.4334 23.0749C13.325 23.1832 13.1084 23.1832 13 23.1832C12.8917 23.1832 12.7834 23.1832 12.5667 23.0749C10.8334 21.5582 9.64169 19.4999 8.88336 17.3332C11.5917 16.6832 14.4084 16.6832 17.1167 17.3332C16.3584 19.4999 15.1667 21.5582 13.4334 23.0749ZM8.45003 15.4916C8.34169 14.6249 8.23336 13.8666 8.23336 12.9999C8.23336 12.1332 8.34169 11.3749 8.45003 10.5082C9.96669 10.9416 11.4834 11.0499 13.1084 11.0499C14.625 11.0499 16.1417 10.8332 17.6584 10.5082C17.7667 11.2666 17.875 12.1332 17.875 12.9999C17.875 13.8666 17.7667 14.6249 17.6584 15.4916C14.625 14.7332 11.375 14.7332 8.45003 15.4916ZM12.5667 2.9249C12.675 2.81657 12.8917 2.81657 13 2.81657C13.1084 2.81657 13.2167 2.81657 13.4334 2.9249C15.1667 4.44157 16.3584 6.4999 17.1167 8.66657C14.4084 9.31657 11.5917 9.31657 8.88336 8.66657C9.64169 6.4999 10.8334 4.44157 12.5667 2.9249ZM19.3917 9.96657C20.475 9.64157 21.45 9.0999 22.425 8.55824C23.075 9.85824 23.4 11.3749 23.4 12.9999C23.4 14.6249 23.075 16.0332 22.425 17.4416C21.45 16.8999 20.475 16.3582 19.3917 16.0332C19.6084 15.0582 19.7167 14.0832 19.7167 12.9999C19.7167 12.0249 19.6084 10.9416 19.3917 9.96657ZM21.45 6.93324C20.5834 7.36657 19.825 7.7999 18.9584 8.1249C18.3084 6.28324 17.4417 4.5499 16.1417 3.03324C18.3084 3.79157 20.15 5.09157 21.45 6.93324ZM9.85836 3.03324C8.66669 4.5499 7.69169 6.28324 7.04169 8.1249C6.17502 7.7999 5.41669 7.36657 4.55002 6.93324C5.85002 5.09157 7.69169 3.79157 9.85836 3.03324ZM3.57502 8.55824C4.55002 9.0999 5.52502 9.64157 6.60836 9.96657C6.39169 10.9416 6.28336 11.9166 6.28336 12.9999C6.28336 14.0832 6.39169 15.0582 6.60836 16.0332C5.52502 16.3582 4.55002 16.8999 3.57502 17.4416C2.92502 16.0332 2.60002 14.6249 2.60002 12.9999C2.60002 11.3749 2.92502 9.85824 3.57502 8.55824ZM4.55002 19.0666C5.30836 18.6332 6.17502 18.1999 7.04169 17.8749C7.69169 19.7166 8.55836 21.4499 9.85836 22.9666C7.69169 22.2082 5.85002 20.9082 4.55002 19.0666ZM16.1417 22.9666C17.3334 21.4499 18.3084 19.7166 18.9584 17.8749C19.825 18.1999 20.6917 18.6332 21.45 19.0666C20.15 20.9082 18.3084 22.2082 16.1417 22.9666Z" fill="white"/>
</g>
<defs>
<clipPath id="clip0_7_5167">
<rect width="26" height="26" fill="white"/>
</clipPath>
</defs>
</svg>
